<svg width="101" height="101" viewBox="0 0 101 101" fill="none" xmlns="http://www.w3.org/2000/svg">
<g clip-path="url(#clip0_30_43)">
<path d="M44.6215 0.966614C43.5365 1.24278 42.4713 2.13048 41.9189 3.21544L41.4258 4.2215V12.7236V21.2258L37.9342 21.4625C29.7082 22.0346 22.0148 23.4549 14.3609 25.8615C12.9801 26.2955 11.6979 26.69 11.54 26.7492C11.2836 26.8479 11.2441 26.6111 11.2441 25.2106V23.5338L15.0514 21.7979C21.9557 18.6219 22.3502 18.4049 23.0998 16.9254C23.8691 15.4459 23.4352 13.1774 22.1529 11.974C21.5217 11.3822 12.3094 7.575 10.9877 7.37774C9.40957 7.10157 7.47637 8.14708 6.70703 9.68575C6.33223 10.3959 6.3125 10.8693 6.3125 19.8647V29.3137L5.01055 30.1619C2.97871 31.5033 1.51895 33.6535 1.00605 36.0602C0.867969 36.7309 0.789062 40.1633 0.789062 45.8248C0.789062 53.893 0.808789 54.6031 1.14414 55.2147C2.13047 57.0492 4.85273 56.99 5.6418 55.1357C5.85879 54.6031 5.91797 53.3406 5.91797 49.5137C5.91797 46.8111 5.95742 44.582 5.99688 44.582C6.05606 44.582 6.6084 44.8779 7.25938 45.2527C19.549 52.4727 50.9143 55.1555 74.9609 51.0721C82.7727 49.7504 90.5449 47.324 94.0563 45.0949C94.51 44.8188 94.9242 44.582 94.9834 44.582C95.0426 44.582 95.082 49.9477 95.082 56.4772V68.392L94.4902 69.2008C92.8332 71.5088 86.9152 74.1127 79.498 75.8289C76.2826 76.5588 71.0156 77.4662 69.3389 77.5648L68.3723 77.624L68.2342 76.6969C67.741 73.442 65.5316 70.6803 62.3951 69.3981C61.251 68.9443 61.2313 68.9443 51.1115 68.8852C44.2467 68.8457 40.6367 68.9049 39.9266 69.043C36.2377 69.8123 33.259 72.9488 32.7658 76.6377L32.6475 77.624L31.5625 77.5648C29.7279 77.4465 23.7508 76.3813 20.3973 75.5527C16.3928 74.5664 13.71 73.6393 10.9482 72.2979C7.65391 70.6803 5.91797 69.1613 5.91797 67.8791C5.91797 66.6561 4.57656 65.2949 3.39297 65.2949C2.68281 65.2949 1.6373 65.8473 1.24277 66.4391C0.907422 66.9322 0.887695 67.6621 0.828516 75.6514C0.749609 84.982 0.808789 85.7316 1.73594 87.4676C3.72832 91.1565 10.0605 94.5494 19.0164 96.7588C42.0373 102.401 76.5391 100.763 92.0244 93.2869C96.6996 91.0381 99.2443 88.5723 99.9348 85.633C100.152 84.7453 100.211 79.7939 100.211 60.6C100.211 38.6246 100.191 36.5928 99.8756 35.9615C99.2246 34.5807 97.5281 34.1072 96.2459 34.9752C95.5949 35.4092 95.2793 36.0799 94.9834 37.5199C94.8453 38.2695 93.8195 39.394 92.4584 40.2619L91.3143 41.0115L89.9334 40.4395C83.6604 37.8553 74.2902 35.9418 63.125 34.9752C57.424 34.482 43.576 34.482 37.875 34.9752C26.7492 35.9418 17.3199 37.8553 11.0666 40.4197L9.68574 40.9918L8.73887 40.4C6.88457 39.2361 5.91797 38.0525 5.91797 36.9281C5.91797 34.6004 11.3033 31.6414 19.2334 29.5899C28.3273 27.2424 39.4334 26.0391 52.374 26.0391C63.6182 26.0391 73.8168 27.4397 84.627 30.4973C86.6785 31.0693 87.8818 31.3258 88.2961 31.2469C89.5389 31.0102 90.5055 29.5701 90.2688 28.3274C90.032 27.1043 89.2824 26.6111 86.3826 25.684C84.9229 25.2303 83.4434 24.7963 83.0883 24.7371L82.4373 24.599L82.4965 23.3957L82.5557 22.1924L87.5859 19.8647C90.3477 18.5824 92.8924 17.3199 93.2277 17.0635C94.9637 15.7418 95.1807 12.5264 93.642 10.8891C93.0502 10.2381 92.4781 9.96192 87.29 7.8709C83.5223 6.35196 82.5754 6.03634 81.668 6.03634C80.2871 6.01661 79.0641 6.66759 78.2158 7.85118L77.624 8.71915L77.5254 16.0377C77.4662 20.7721 77.3479 23.3563 77.2295 23.3365C66.5969 21.64 60.4422 21.1074 51.7428 21.1074H46.5547V19.0559V17.024L51.5455 14.716C54.2678 13.4338 56.8125 12.1713 57.1676 11.9148C59.0811 10.4551 59.2191 7.39747 57.4438 5.66153C56.8322 5.06973 55.8064 4.57657 51.7822 2.95899C46.8111 0.946884 45.8051 0.670715 44.6215 0.966614ZM50.0463 7.7131C51.2693 8.18653 52.2754 8.64024 52.2754 8.69942C52.2754 8.77833 51.6836 9.09396 50.9537 9.42931C50.2041 9.76466 48.9219 10.3367 48.0934 10.7313L46.5547 11.4217V8.87696V6.31251L47.2057 6.56895C47.541 6.72677 48.843 7.21993 50.0463 7.7131ZM85.7514 12.6842C87.1914 13.2563 88.375 13.7494 88.375 13.8086C88.375 13.8875 83.3842 16.2547 82.6346 16.5309C82.5359 16.5703 82.457 15.4854 82.457 14.0059C82.457 11.5992 82.4768 11.402 82.8121 11.5203C82.9897 11.5992 84.3311 12.1121 85.7514 12.6842ZM14.5977 14.0848L17.2607 15.15L14.6963 16.3731C13.2957 17.0438 11.9346 17.675 11.6979 17.7736L11.2441 17.9512V15.367C11.2441 12.9998 11.2639 12.8025 11.5992 12.9012C11.7965 12.9604 13.1379 13.493 14.5977 14.0848ZM61.0537 39.8674C68.3131 40.4 76.5588 41.7414 82.7529 43.3787C84.0352 43.7141 84.0943 43.7535 83.6209 43.9508C82.7727 44.2861 76.2629 45.7065 73.0869 46.2391C65.0188 47.6002 61.7441 47.8369 50.5 47.8369C40.7945 47.8369 38.8416 47.7383 33.1406 47.0281C27.8934 46.3772 19.4307 44.6807 17.1621 43.8522C16.5111 43.6154 24.7371 41.7809 30.1816 40.9524C34.7779 40.2619 39.1375 39.8279 43.5957 39.6701C48.3301 39.4926 57.3451 39.5912 61.0537 39.8674ZM61.1721 74.4283C61.6455 74.6848 62.3162 75.2766 62.6318 75.7303L63.2236 76.5785L63.2828 85.6133L63.342 94.6481L60.4225 94.8059C56.6547 95.0229 44.3453 95.0229 40.5775 94.8059L37.658 94.6481L37.7172 85.6133L37.7764 76.5785L38.3682 75.7303C38.7035 75.2766 39.3545 74.6848 39.8279 74.4283L40.6959 73.9746H50.5H60.3041L61.1721 74.4283ZM13.6113 78.8471C17.9314 80.2871 23.5732 81.5693 29.0967 82.3584C30.3 82.5162 31.5625 82.7135 31.9176 82.7727L32.5488 82.8713V88.4934V94.0957L31.7203 93.9773C20.0027 92.3795 10.8102 89.5586 7.39746 86.5602C5.91797 85.2582 5.91797 85.2385 5.91797 80.0307V75.4147L8.5416 76.7363C9.96191 77.4465 12.2502 78.4131 13.6113 78.8471ZM94.865 85.0807C94.4902 85.9684 92.8529 87.29 90.7816 88.3356C85.85 90.8606 79.2811 92.5768 69.2994 93.9773L68.4512 94.0957V88.4934C68.4512 82.1217 68.2342 82.7727 70.3252 82.5557C73.008 82.2795 78.8471 81.1748 82.3584 80.2871C86.718 79.1824 90.2293 77.9397 93.0107 76.4799L94.9834 75.4541L95.0426 79.9912C95.082 83.0686 95.0229 84.7059 94.865 85.0807Z" fill="url(#paint0_linear_30_43)"/>
</g>
<defs>
<linearGradient id="paint0_linear_30_43" x1="50.5" y1="100.127" x2="50.5" y2="0.866638" gradientUnits="userSpaceOnUse">
<stop stop-color="#00657C"/>
<stop offset="1" stop-color="#00CCB4"/>
</linearGradient>
<clipPath id="clip0_30_43">
<rect width="101" height="101" fill="white"/>
</clipPath>
</defs>
</svg>
