<svg width="20" height="20" viewBox="0 0 20 20" fill="none" xmlns="http://www.w3.org/2000/svg">
<path d="M15 10.8316H10.8334V14.9983C10.8334 15.2193 10.7456 15.4313 10.5893 15.5876C10.433 15.7438 10.221 15.8316 10 15.8316C9.77901 15.8316 9.56705 15.7438 9.41077 15.5876C9.25449 15.4313 9.16669 15.2193 9.16669 14.9983V10.8316H5.00002C4.77901 10.8316 4.56705 10.7438 4.41076 10.5876C4.25448 10.4313 4.16669 10.2193 4.16669 9.99831C4.16669 9.7773 4.25448 9.56534 4.41076 9.40906C4.56705 9.25278 4.77901 9.16498 5.00002 9.16498H9.16669V4.99831C9.16669 4.7773 9.25449 4.56534 9.41077 4.40906C9.56705 4.25278 9.77901 4.16498 10 4.16498C10.221 4.16498 10.433 4.25278 10.5893 4.40906C10.7456 4.56534 10.8334 4.7773 10.8334 4.99831V9.16498H15C15.221 9.16498 15.433 9.25278 15.5893 9.40906C15.7456 9.56534 15.8334 9.7773 15.8334 9.99831C15.8334 10.2193 15.7456 10.4313 15.5893 10.5876C15.433 10.7438 15.221 10.8316 15 10.8316Z" fill="#DBDBDB"/>
</svg>
