<svg width="26" height="25" viewBox="0 0 26 25" fill="none" xmlns="http://www.w3.org/2000/svg">
<g clip-path="url(#clip0_92_765)">
<path d="M4.61186 2.00922C4.20513 2.00922 3.81505 2.16712 3.52745 2.44819C3.23985 2.72925 3.07828 3.11046 3.07828 3.50795V5.00667C3.07828 5.40416 3.23985 5.78536 3.52745 6.06643C3.81505 6.3475 4.20513 6.5054 4.61186 6.5054H5.37864V19.9939C5.37864 20.7889 5.70179 21.5513 6.27699 22.1134C6.8522 22.6756 7.63234 22.9914 8.4458 22.9914H17.6473C18.4607 22.9914 19.2409 22.6756 19.8161 22.1134C20.3913 21.5513 20.7144 20.7889 20.7144 19.9939V6.5054H21.4812C21.8879 6.5054 22.278 6.3475 22.5656 6.06643C22.8532 5.78536 23.0148 5.40416 23.0148 5.00667V3.50795C23.0148 3.11046 22.8532 2.72925 22.5656 2.44819C22.278 2.16712 21.8879 2.00922 21.4812 2.00922H16.1137C16.1137 1.61174 15.9521 1.23053 15.6645 0.949464C15.3769 0.668399 14.9868 0.510498 14.5801 0.510498H11.513C11.1062 0.510498 10.7162 0.668399 10.4286 0.949464C10.141 1.23053 9.97938 1.61174 9.97938 2.00922H4.61186ZM9.21259 8.00412C9.41596 8.00412 9.61099 8.08307 9.75479 8.2236C9.89859 8.36414 9.97938 8.55474 9.97938 8.75348V19.2446C9.97938 19.4433 9.89859 19.6339 9.75479 19.7744C9.61099 19.915 9.41596 19.9939 9.21259 19.9939C9.00922 19.9939 8.81419 19.915 8.67039 19.7744C8.52659 19.6339 8.4458 19.4433 8.4458 19.2446V8.75348C8.4458 8.55474 8.52659 8.36414 8.67039 8.2236C8.81419 8.08307 9.00922 8.00412 9.21259 8.00412ZM13.0465 8.00412C13.2499 8.00412 13.4449 8.08307 13.5887 8.2236C13.7325 8.36414 13.8133 8.55474 13.8133 8.75348V19.2446C13.8133 19.4433 13.7325 19.6339 13.5887 19.7744C13.4449 19.915 13.2499 19.9939 13.0465 19.9939C12.8432 19.9939 12.6481 19.915 12.5043 19.7744C12.3605 19.6339 12.2797 19.4433 12.2797 19.2446V8.75348C12.2797 8.55474 12.3605 8.36414 12.5043 8.2236C12.6481 8.08307 12.8432 8.00412 13.0465 8.00412ZM17.6473 8.75348V19.2446C17.6473 19.4433 17.5665 19.6339 17.4227 19.7744C17.2789 19.915 17.0838 19.9939 16.8805 19.9939C16.6771 19.9939 16.4821 19.915 16.3383 19.7744C16.1945 19.6339 16.1137 19.4433 16.1137 19.2446V8.75348C16.1137 8.55474 16.1945 8.36414 16.3383 8.2236C16.4821 8.08307 16.6771 8.00412 16.8805 8.00412C17.0838 8.00412 17.2789 8.08307 17.4227 8.2236C17.5665 8.36414 17.6473 8.55474 17.6473 8.75348Z" fill="#DBDBDB"/>
</g>
<defs>
<clipPath id="clip0_92_765">
<rect width="24.5373" height="23.9796" fill="white" transform="translate(0.777924 0.510498)"/>
</clipPath>
</defs>
</svg>
